<?xml version="1.0" standalone="no"?>
<!DOCTYPE svg PUBLIC "-//W3C//DTD SVG 20010904//EN"
 "http://www.w3.org/TR/2001/REC-SVG-20010904/DTD/svg10.dtd">
<svg version="1.0" xmlns="http://www.w3.org/2000/svg"
 width="483.000000pt" height="483.000000pt" viewBox="0 0 483.000000 483.000000"
 preserveAspectRatio="xMidYMid meet">
<metadata>
Created by potrace 1.14, written by Peter Selinger 2001-2017
</metadata>
<g transform="translate(0.000000,483.000000) scale(0.100000,-0.100000)"
fill="#000000" stroke="none">
<path d="M970 3729 l0 -379 188 0 c103 -1 255 -1 337 -2 l150 -1 5 -186 5
-186 263 -3 c155 -1 262 -6 262 -12 0 -8 -32 -67 -146 -268 -11 -21 -50 -90
-86 -154 l-66 -117 69 -3 68 -3 -91 -145 c-50 -80 -226 -361 -391 -625 -164
-264 -314 -502 -332 -530 -18 -27 -67 -106 -110 -175 -42 -69 -85 -137 -96
-152 -10 -15 -15 -29 -11 -31 4 -2 652 -5 1440 -5 l1432 -1 0 380 0 379 -217
1 c-120 0 -273 0 -340 0 l-123 0 -2 187 -3 187 -262 3 c-162 1 -263 6 -263 12
0 11 71 139 263 477 l35 62 -69 3 -69 3 261 415 c143 228 290 462 325 520 36
58 146 233 245 390 99 157 186 297 194 311 l14 26 -1440 1 -1439 1 0 -380z"/>
</g>
</svg>
